<svg width="247" height="308" viewBox="0 0 247 308" fill="none" xmlns="http://www.w3.org/2000/svg">
<path d="M75.1881 254.83L37.907 202.929L237.471 1.90308L75.1881 254.83Z" fill="#8AE051" stroke="#000609"/>
<g style="mix-blend-mode:multiply">
<path d="M105.119 208.268L75.195 254.333L74.0291 202.968L105.119 208.268Z" fill="#000609"/>
</g>
<path d="M-30.8078 158.338L-60.0479 140.794L124.647 25.4999L238.932 1.17212L246.242 97.6644L139.516 306L74.4566 202.198L238.932 1.17212L37.9065 202.198L-30.8078 158.338Z" fill="#8AE051"/>
<path d="M238.932 1.17212L124.647 25.4999L-60.0479 140.794L-30.8078 158.338L37.9065 202.198L238.932 1.17212ZM238.932 1.17212L246.242 97.6644L139.516 306L74.4566 202.198L238.932 1.17212Z" stroke="#000609"/>
<path d="M75.1661 254.714L74.4585 202.298" stroke="#000609"/>
<path d="M124.989 25.2715L-30.4797 158.592" stroke="#000609" stroke-width="0.4"/>
<path d="M246.333 97.4927L130.811 243.19L139.575 305.78" stroke="#000609"/>
</svg>
