<svg width="243" height="70" viewBox="0 0 243 70" fill="none" xmlns="http://www.w3.org/2000/svg">
<path d="M410.049 69.2451C411.884 66.6133 413 63.4232 413 59.9141C413 51.0616 405.822 43.8839 396.97 43.8839C394.817 43.8839 392.743 44.2827 390.829 45.0802C388.357 42.4484 384.927 40.6938 381.099 40.5343C381.338 39.2583 381.498 37.9025 381.498 36.467C381.498 24.5839 371.848 14.9339 359.965 14.9339C351.591 14.9339 344.413 19.719 340.824 26.5777C337.873 24.2649 334.125 22.8293 329.978 22.8293C322.72 22.8293 316.42 27.2954 313.788 33.5959C311.475 33.9149 309.322 34.7124 307.488 35.9884C306.611 28.5715 300.31 22.8293 292.654 22.8293C291.777 22.8293 290.82 22.9091 290.022 23.0686C287.869 16.9277 282.047 12.4615 275.188 12.4615C266.814 12.4615 260.035 19.0012 259.477 27.2157C256.765 24.5041 253.017 22.8293 248.87 22.8293C243.208 22.8293 238.343 25.9397 235.791 30.5653C234.196 29.9273 232.441 29.6083 230.686 29.6083C227.656 29.6083 224.865 30.5653 222.552 32.0806C220.558 22.8293 212.104 15.8111 202.055 15.8111C192.326 15.8111 184.191 22.3508 181.719 31.2831C180.682 30.7248 179.485 30.326 178.289 30.0868C173.265 25.8599 166.805 23.3876 159.787 23.3876C146.707 23.3876 135.702 32.0806 132.192 43.9637C131.634 44.8409 131.076 45.798 130.677 46.8347C130.677 46.5955 130.757 46.2765 130.757 46.0372C130.757 39.1785 125.174 33.5959 118.316 33.5959C114.966 33.5959 111.856 34.9517 109.623 37.105C109.862 35.9884 109.942 34.7922 109.942 33.5959C109.942 23.7864 101.966 15.8111 92.1568 15.8111C87.2122 15.8111 82.6663 17.8847 79.4762 21.1545C80.1142 19.4797 80.4332 17.7252 80.4332 15.8111C80.4332 7.43714 73.6543 0.658203 65.2803 0.658203C56.9063 0.658203 50.1274 7.43714 50.1274 15.8111C47.336 13.8173 43.9067 12.621 40.1583 12.621C30.6678 12.621 23.0116 20.2773 23.0116 29.7678C23.0116 30.1665 23.0116 30.645 23.0914 31.0438C14.0794 32.0008 7.06117 39.5773 7.06117 48.8286C7.06117 50.6629 7.30043 52.4174 7.85869 54.0922C3.79133 56.0063 1 60.0736 1 64.8588C1 66.374 1.31901 67.8893 1.87727 69.2451H410.049Z" fill="#8AE051"/>
<path d="M410.049 69.2451C411.884 66.6133 413 63.4232 413 59.9141C413 51.0616 405.822 43.8839 396.97 43.8839C394.817 43.8839 392.743 44.2827 390.829 45.0802C388.357 42.4484 384.927 40.6938 381.099 40.5343C381.338 39.2583 381.498 37.9025 381.498 36.467C381.498 24.5839 371.848 14.9339 359.965 14.9339C351.591 14.9339 344.413 19.719 340.824 26.5777C337.873 24.2649 334.125 22.8293 329.978 22.8293C322.72 22.8293 316.42 27.2954 313.788 33.5959C311.475 33.9149 309.322 34.7124 307.488 35.9884C306.611 28.5715 300.31 22.8293 292.654 22.8293C291.777 22.8293 290.82 22.9091 290.022 23.0686C287.869 16.9277 282.047 12.4615 275.188 12.4615C266.814 12.4615 260.035 19.0012 259.477 27.2157C256.765 24.5041 253.017 22.8293 248.87 22.8293C243.208 22.8293 238.343 25.9397 235.791 30.5653C234.196 29.9273 232.441 29.6083 230.686 29.6083C227.656 29.6083 224.865 30.5653 222.552 32.0806C220.558 22.8293 212.104 15.8111 202.055 15.8111C192.326 15.8111 184.191 22.3508 181.719 31.2831C180.682 30.7248 179.485 30.326 178.289 30.0868C173.265 25.8599 166.805 23.3876 159.787 23.3876C146.707 23.3876 135.702 32.0806 132.192 43.9637C131.634 44.8409 131.076 45.798 130.677 46.8347C130.677 46.5955 130.757 46.2765 130.757 46.0372C130.757 39.1785 125.174 33.5959 118.316 33.5959C114.966 33.5959 111.856 34.9517 109.623 37.105C109.862 35.9884 109.942 34.7922 109.942 33.5959C109.942 23.7864 101.966 15.8111 92.1568 15.8111C87.2122 15.8111 82.6663 17.8847 79.4762 21.1545C80.1142 19.4797 80.4332 17.7252 80.4332 15.8111C80.4332 7.43714 73.6543 0.658203 65.2803 0.658203C56.9063 0.658203 50.1274 7.43714 50.1274 15.8111C47.336 13.8173 43.9067 12.621 40.1583 12.621C30.6678 12.621 23.0116 20.2773 23.0116 29.7678C23.0116 30.1665 23.0116 30.645 23.0914 31.0438C14.0794 32.0008 7.06117 39.5773 7.06117 48.8286C7.06117 50.6629 7.30043 52.4174 7.85869 54.0922C3.79133 56.0063 1 60.0736 1 64.8588C1 66.374 1.31901 67.8893 1.87727 69.2451" stroke="#000609" stroke-width="0.4"/>
</svg>
