<svg width="135" height="134" viewBox="0 0 135 134" fill="none" xmlns="http://www.w3.org/2000/svg">
<path d="M64.9014 107.406L47.9575 88.8121L116.824 1.10895L64.9014 107.406Z" fill="#8AE051" stroke="#000609" stroke-width="0.6"/>
<g style="mix-blend-mode:multiply">
<path d="M74.4817 87.8354L64.8814 107.212L62.0836 87.1804L74.4817 87.8354Z" fill="#000609"/>
</g>
<path d="M19.0558 74.5094L6.82254 68.9826L73.7844 15.4799L117.362 0.756511L124.62 38.1532L92.3876 124.482L62.2156 86.8598L117.362 0.756511L47.9239 88.5263L19.0558 74.5094Z" fill="#8AE051"/>
<path d="M117.362 0.756511L73.7844 15.4799L6.82254 68.9826L19.0558 74.5094L47.9239 88.5263L117.362 0.756511ZM117.362 0.756511L124.62 38.1532L92.3876 124.482L62.2156 86.8598L117.362 0.756511Z" stroke="#000609" stroke-width="0.6"/>
<path d="M64.8873 107.362L62.2207 86.8989" stroke="#000609" stroke-width="0.6"/>
<path d="M73.9078 15.3748L19.1956 74.5937" stroke="#000609" stroke-width="0.2"/>
<path d="M124.648 38.0819L86.1198 100.319L92.4005 124.393" stroke="#000609" stroke-width="0.6"/>
</svg>
