<svg width="67" height="45" viewBox="0 0 67 45" fill="none" xmlns="http://www.w3.org/2000/svg">
<path d="M61.6853 20.9546C61.7414 20.575 61.7414 20.2497 61.7414 19.8701C61.7414 13.0378 56.0259 7.45271 48.9095 7.45271C45.4353 7.45271 42.2974 8.80832 39.944 10.9773C38.8793 5.28373 33.7241 1 27.5603 1C22.7414 1 18.5948 3.60277 16.4655 7.45271C7.89223 7.50693 1 14.285 1 22.5813C1 30.9319 8.00429 37.71 16.6336 37.71C19.5474 37.71 22.2371 36.9508 24.5905 35.5952C26.2155 40.4754 30.9224 44 36.4698 44C42.0172 44 46.7241 40.4754 48.3491 35.6494C49.3017 36.0832 50.3664 36.3543 51.4871 36.3543C52.4957 36.3543 53.4483 36.1375 54.3448 35.7579C55.2974 36.1375 56.3621 36.3543 57.4827 36.3543C62.1896 36.3543 66 32.6671 66 28.1122C66 25.0757 64.2629 22.4187 61.6853 20.9546Z" fill="#8AE051" stroke="#000609" stroke-width="0.4"/>
</svg>
