<svg width="75" height="99" viewBox="0 0 75 99" fill="none" xmlns="http://www.w3.org/2000/svg">
<path d="M11.8066 70.434L8.24675 55.1184L72.5915 28.3289L11.8066 70.434Z" fill="#8AE051" stroke="#000609" stroke-width="0.4"/>
<g style="mix-blend-mode:multiply">
<path d="M23.0084 62.6879L11.8543 70.3216L16.4475 58.5435L23.0084 62.6879Z" fill="#000609"/>
</g>
<path d="M-3.14533 38.4901L-8.12809 31.7394L44.7307 23.0181L72.9921 28.3009L65.5265 50.911L21.5788 88.1415L16.6178 58.409L72.9921 28.3009L8.31523 54.9521L-3.14533 38.4901Z" fill="#8AE051"/>
<path d="M72.9921 28.3009L44.7307 23.0181L-8.12809 31.7394L-3.14533 38.4901L8.31524 54.9521L72.9921 28.3009ZM72.9921 28.3009L65.5265 50.911L21.5788 88.1415L16.6178 58.409L72.9921 28.3009Z" stroke="#000609" stroke-width="0.4"/>
<path d="M11.8119 70.4055L16.6086 58.4319" stroke="#000609" stroke-width="0.4"/>
<path d="M44.8296 22.9985L-3.09536 38.5788" stroke="#000609" stroke-width="0.125009"/>
<path d="M65.5638 50.8806L25.5424 73.0506L21.6135 88.097" stroke="#000609" stroke-width="0.4"/>
</svg>
