<svg width="41" height="28" viewBox="0 0 41 28" fill="none" xmlns="http://www.w3.org/2000/svg">
<path d="M37.4112 13.0656C37.4448 12.8361 37.4448 12.6393 37.4448 12.4098C37.4448 8.27869 34.0155 4.90164 29.7457 4.90164C27.6612 4.90164 25.7784 5.72131 24.3664 7.03279C23.7276 3.59016 20.6345 1 16.9362 1C14.0448 1 11.5569 2.57377 10.2793 4.90164C5.13534 4.93442 1 9.03278 1 14.0492C1 19.0984 5.20257 23.1967 10.3802 23.1967C12.1284 23.1967 13.7422 22.7377 15.1543 21.918C16.1293 24.8689 18.9534 27 22.2819 27C25.6103 27 28.4345 24.8689 29.4095 21.9508C29.981 22.2131 30.6198 22.377 31.2922 22.377C31.8974 22.377 32.469 22.2459 33.0069 22.0164C33.5784 22.2459 34.2172 22.377 34.8896 22.377C37.7138 22.377 40 20.1475 40 17.3934C40 15.5574 38.9578 13.9508 37.4112 13.0656Z" fill="#8AE051" stroke="#000609" stroke-width="0.4"/>
</svg>
