<svg width="82" height="35" viewBox="0 0 82 35" fill="none" xmlns="http://www.w3.org/2000/svg">
<path d="M22.912 30.192C22.0907 30.192 21.3653 30.0533 20.736 29.776C20.1067 29.488 19.6107 29.0827 19.248 28.56C18.8853 28.0267 18.6987 27.3813 18.688 26.624H20.848C20.8693 27.1467 21.056 27.5893 21.408 27.952C21.7707 28.304 22.2667 28.48 22.896 28.48C23.44 28.48 23.872 28.352 24.192 28.096C24.512 27.8293 24.672 27.4773 24.672 27.04C24.672 26.5813 24.528 26.224 24.24 25.968C23.9627 25.712 23.5893 25.504 23.12 25.344C22.6507 25.184 22.1493 25.0133 21.616 24.832C20.752 24.5333 20.0907 24.1493 19.632 23.68C19.184 23.2107 18.96 22.5867 18.96 21.808C18.9493 21.1467 19.104 20.5813 19.424 20.112C19.7547 19.632 20.2027 19.264 20.768 19.008C21.3333 18.7413 21.984 18.608 22.72 18.608C23.4667 18.608 24.1227 18.7413 24.688 19.008C25.264 19.2747 25.712 19.648 26.032 20.128C26.3627 20.608 26.5387 21.1787 26.56 21.84H24.368C24.3573 21.4453 24.2027 21.0987 23.904 20.8C23.616 20.4907 23.2107 20.336 22.688 20.336C22.24 20.3253 21.8613 20.4373 21.552 20.672C21.2533 20.896 21.104 21.2267 21.104 21.664C21.104 22.0373 21.2213 22.336 21.456 22.56C21.6907 22.7733 22.0107 22.9547 22.416 23.104C22.8213 23.2533 23.2853 23.4133 23.808 23.584C24.3627 23.776 24.8693 24 25.328 24.256C25.7867 24.512 26.1547 24.8533 26.432 25.28C26.7093 25.696 26.848 26.2347 26.848 26.896C26.848 27.4827 26.6987 28.0267 26.4 28.528C26.1013 29.0293 25.6587 29.4347 25.072 29.744C24.4853 30.0427 23.7653 30.192 22.912 30.192ZM34.1069 30.192C32.9762 30.192 32.0055 29.952 31.1949 29.472C30.3842 28.9813 29.7602 28.304 29.3229 27.44C28.8855 26.5653 28.6669 25.5573 28.6669 24.416C28.6669 23.2747 28.8855 22.2667 29.3229 21.392C29.7602 20.5173 30.3842 19.8347 31.1949 19.344C32.0055 18.8533 32.9762 18.608 34.1069 18.608C35.4509 18.608 36.5495 18.944 37.4029 19.616C38.2669 20.2773 38.8055 21.2107 39.0189 22.416H36.7629C36.6242 21.808 36.3255 21.3333 35.8669 20.992C35.4189 20.64 34.8215 20.464 34.0749 20.464C33.0402 20.464 32.2295 20.816 31.6429 21.52C31.0562 22.224 30.7629 23.1893 30.7629 24.416C30.7629 25.6427 31.0562 26.608 31.6429 27.312C32.2295 28.0053 33.0402 28.352 34.0749 28.352C34.8215 28.352 35.4189 28.192 35.8669 27.872C36.3255 27.5413 36.6242 27.088 36.7629 26.512H39.0189C38.8055 27.664 38.2669 28.5653 37.4029 29.216C36.5495 29.8667 35.4509 30.192 34.1069 30.192ZM41.2317 30V18.8H45.3437C46.2397 18.8 46.9757 18.9547 47.5517 19.264C48.1384 19.5627 48.5757 19.9733 48.8637 20.496C49.1517 21.008 49.2957 21.5787 49.2957 22.208C49.2957 22.8907 49.1144 23.5147 48.7517 24.08C48.3997 24.6453 47.8451 25.056 47.0877 25.312L49.4078 30H47.0557L44.9757 25.584H43.2797V30H41.2317ZM43.2797 24.08H45.2157C45.8984 24.08 46.3997 23.9147 46.7197 23.584C47.0397 23.2533 47.1997 22.816 47.1997 22.272C47.1997 21.7387 47.0397 21.312 46.7197 20.992C46.4104 20.672 45.9037 20.512 45.1997 20.512H43.2797V24.08ZM56.8485 30.192C55.7285 30.192 54.7472 29.9467 53.9045 29.456C53.0725 28.9653 52.4165 28.288 51.9365 27.424C51.4672 26.5493 51.2325 25.5413 51.2325 24.4C51.2325 23.2587 51.4672 22.256 51.9365 21.392C52.4165 20.5173 53.0725 19.8347 53.9045 19.344C54.7472 18.8533 55.7285 18.608 56.8485 18.608C57.9578 18.608 58.9338 18.8533 59.7765 19.344C60.6192 19.8347 61.2752 20.5173 61.7445 21.392C62.2138 22.256 62.4485 23.2587 62.4485 24.4C62.4485 25.5413 62.2138 26.5493 61.7445 27.424C61.2752 28.288 60.6192 28.9653 59.7765 29.456C58.9338 29.9467 57.9578 30.192 56.8485 30.192ZM56.8485 28.352C57.9152 28.352 58.7632 28 59.3925 27.296C60.0325 26.592 60.3525 25.6267 60.3525 24.4C60.3525 23.1733 60.0325 22.208 59.3925 21.504C58.7632 20.8 57.9152 20.448 56.8485 20.448C55.7818 20.448 54.9285 20.8 54.2885 21.504C53.6485 22.208 53.3285 23.1733 53.3285 24.4C53.3285 25.6267 53.6485 26.592 54.2885 27.296C54.9285 28 55.7818 28.352 56.8485 28.352ZM64.6567 30V18.8H66.7047V28.4H71.6647V30H64.6567ZM73.8693 30V18.8H75.9173V28.4H80.8773V30H73.8693Z" fill="#000609"/>
<path d="M12 12V24L-3.8147e-05 12V0H12L24 12H12Z" fill="#000609"/>
</svg>
