<svg width="166" height="32" viewBox="0 0 166 32" fill="none" xmlns="http://www.w3.org/2000/svg">
<path fill-rule="evenodd" clip-rule="evenodd" d="M7.03018 31.6357V10.5452L0 17.5754V31.6357H7.03018Z" fill="#000609"/>
<rect width="10.5453" height="10.5453" transform="matrix(-1.19249e-08 -1 -1 1.19249e-08 28.1215 31.6357)" fill="#000609"/>
<path d="M17.5756 21.0905L17.5756 31.6358L28.1209 21.0905L17.5756 21.0905Z" fill="#000609"/>
<path d="M17.5768 10.5453V21.0905L28.1221 10.5453V0H17.5768L7.03154 10.5453H17.5768Z" fill="#000609"/>
<path d="M152.79 4.33754V0.0196838H165.017V3.56802C161.212 11.3915 160.955 21.267 160.955 31.6555H155.697C155.697 21.267 157.364 10.5364 160.229 4.33754H152.79Z" fill="#000609"/>
<path d="M151.033 31.6555H145.946V0.0196838H151.033V31.6555Z" fill="#000609"/>
<path d="M90.9742 4.52784H86.0654L86.0654 0.0183411H90.9742V4.52784ZM90.9742 31.6555H86.0654V6.25024H90.9742V31.6555Z" fill="#000609"/>
<path d="M84.7612 31.6555H79.8524V0H84.7612V31.6555Z" fill="#000609"/>
<path d="M78.5476 4.52781H73.6387V0.0183411H78.5476V4.52781ZM78.5476 31.6555H73.6387V6.2502H78.5476V31.6555Z" fill="#000609"/>
<path d="M66.2726 21.1489L64.0335 19.3404C62.3541 17.9194 61.3207 16.4984 61.3207 14.2593V11.891C61.3207 8.01566 63.5598 5.90573 67.1768 5.90573C70.7939 5.90573 72.6885 8.10178 72.6885 11.5896V15.8095H68.2533V11.5035C68.2533 10.2548 67.995 9.35052 67.1768 9.35052C66.3587 9.35052 66.1434 10.2548 66.1434 11.5035V13.5704C66.1434 14.9052 66.8324 15.5081 67.9089 16.5415L70.148 18.4792C71.7843 19.8141 72.8177 21.2781 72.8177 23.6894V26.1439C72.8177 30.0192 70.5355 32 66.8754 32C63.2153 32 61.2346 29.8039 61.2346 26.3161V21.8809H65.7128V26.4453C65.7128 27.694 66.0573 28.5552 66.8754 28.5552C67.6936 28.5552 67.9519 27.694 67.9519 26.4453V24.0339C67.9519 22.9144 67.4352 22.1823 66.2726 21.1489Z" fill="#000609"/>
<path d="M110.382 11.0299V31.6555H105.473V6.25021H110.382V9.78112C110.77 7.41283 112.019 5.90573 114.172 5.90573C116.454 5.90573 117.616 7.80036 117.616 10.0395V31.6555H112.708V11.0299C112.708 10.0825 112.363 9.39358 111.588 9.39358C110.856 9.39358 110.382 10.0825 110.382 11.0299Z" fill="#000609"/>
<path d="M123.828 11.5035V25.8855C123.828 27.3495 123.911 28.2107 124.861 28.2107C125.811 28.2107 125.93 27.5356 125.93 25.4549V21.754H130.846V25.9286C130.846 29.847 128.478 32 124.904 32C121.072 32 118.833 29.8039 118.833 25.8855V12.0633C118.833 8.14484 121.201 5.90573 124.861 5.90573C128.564 5.90573 130.846 8.10178 130.846 12.0633V16.2831H125.894V11.5035C125.894 10.2548 125.722 9.35052 124.861 9.35052C124.043 9.35052 123.828 10.2548 123.828 11.5035Z" fill="#000609"/>
<path fill-rule="evenodd" clip-rule="evenodd" d="M143.576 25.9286V21.7517H138.667V25.8855C138.667 27.2568 138.565 28.2107 137.59 28.2107C136.616 28.2107 136.557 27.3065 136.557 25.8855V19.6418H140.975L143.576 17.0416V12.0633C143.576 8.10178 141.293 5.90573 137.59 5.90573C133.93 5.90573 131.562 8.14484 131.562 12.0633V25.8855C131.562 29.8039 133.998 32 137.787 32C141.361 32 143.576 29.1634 143.576 25.9286ZM136.557 16.4554V11.5035C136.557 10.2548 136.772 9.35052 137.59 9.35052C138.452 9.35052 138.667 10.2548 138.667 11.5035V16.4554H136.557Z" fill="#000609"/>
<path fill-rule="evenodd" clip-rule="evenodd" d="M104.206 25.9286V21.7517H99.2967V25.8855C99.2967 27.2568 99.195 28.2107 98.2202 28.2107C97.2454 28.2107 97.1868 27.3065 97.1868 25.8855V19.6418H101.605L104.206 17.0415V12.0633C104.206 8.10178 101.923 5.90573 98.2202 5.90573C94.5601 5.90573 92.1918 8.14484 92.1918 12.0633V25.8855C92.1918 29.8039 94.6274 32 98.4166 32C101.991 32 104.206 29.1634 104.206 25.9286ZM97.1868 16.4554V11.5035C97.1868 10.2548 97.4021 9.35052 98.2202 9.35052C99.0814 9.35052 99.2967 10.2548 99.2967 11.5035V16.4554H97.1868Z" fill="#000609"/>
<path fill-rule="evenodd" clip-rule="evenodd" d="M60.3557 25.9286V21.7517H55.4469V25.8855C55.4469 27.2568 55.3452 28.2107 54.3704 28.2107C53.3956 28.2107 53.337 27.3065 53.337 25.8855V19.6418H57.7556L60.3557 17.0417V12.0633C60.3557 8.10178 58.0735 5.90573 54.3704 5.90573C50.7103 5.90573 48.342 8.14484 48.342 12.0633V25.8855C48.342 29.8039 50.7776 32 54.5668 32C58.1408 32 60.3557 29.1634 60.3557 25.9286ZM53.337 16.4554V11.5035C53.337 10.2548 53.5523 9.35052 54.3704 9.35052C55.2316 9.35052 55.4469 10.2548 55.4469 11.5035V16.4554H53.337Z" fill="#000609"/>
<path fill-rule="evenodd" clip-rule="evenodd" d="M42.0145 19.7711C42.0145 18.3932 41.67 17.6181 40.8088 17.6181H39.6893V31.6556H34.5221V0.0207825H41.2394C45.3353 0.0207825 47.1386 1.94434 47.1386 5.81972V11.3744C47.1386 11.6783 47.1252 11.9725 47.0934 12.2563L43.6291 15.7206H44.7991C44.8025 15.7225 44.806 15.7243 44.8094 15.7262H47.0916V19.0696C47.1247 19.3637 47.1386 19.6694 47.1386 19.9864V31.6556H42.0145V19.7711ZM42.0145 11.5897V5.81972C42.0145 4.39875 41.67 3.62367 40.8088 3.62367H39.6893V13.7427H40.8088C41.67 13.7427 42.0145 12.9677 42.0145 11.5897Z" fill="#000609"/>
</svg>
