<svg width="210" height="41" viewBox="0 0 210 41" fill="none" xmlns="http://www.w3.org/2000/svg">
<path fill-rule="evenodd" clip-rule="evenodd" d="M8.8889 39.9997V13.333L0 22.2219V39.9997H8.8889Z" fill="#000609"/>
<rect width="13.3333" height="13.3333" transform="matrix(-1.19249e-08 -1 -1 1.19249e-08 35.5566 40)" fill="#000609"/>
<path d="M22.2225 26.667L22.2225 40.0003L35.5558 26.667L22.2225 26.667Z" fill="#000609"/>
<path d="M22.224 13.3333V26.6667L35.5573 13.3333V0H22.224L8.89062 13.3333H22.224Z" fill="#000609"/>
<path d="M193.983 5.48485V0.0253906H209.442V4.51188C204.632 14.4038 204.307 26.8903 204.307 40.0254H197.659C197.659 26.8903 199.767 13.3227 203.388 5.48485H193.983Z" fill="#000609"/>
<path d="M191.761 40.0254H185.329V0.0253906H191.761V40.0254Z" fill="#000609"/>
<path d="M115.824 5.72521H109.617L109.617 0.0234375H115.824V5.72521ZM115.824 40.0252H109.617V7.90299H115.824V40.0252Z" fill="#000609"/>
<path d="M107.968 40.0249H101.761V0H107.968V40.0249Z" fill="#000609"/>
<path d="M100.112 5.72517H93.9049V0.0234375H100.112V5.72517ZM100.112 40.0252H93.9049V7.90295H100.112V40.0252Z" fill="#000609"/>
<path d="M84.5912 26.7401L81.7601 24.4535C79.6368 22.6568 78.3301 20.8601 78.3301 18.029V15.0346C78.3301 10.1346 81.1612 7.4668 85.7345 7.4668C90.3079 7.4668 92.7034 10.2435 92.7034 14.6535V19.989H87.0956V14.5446C87.0956 12.9657 86.769 11.8224 85.7345 11.8224C84.7001 11.8224 84.4279 12.9657 84.4279 14.5446V17.1579C84.4279 18.8457 85.299 19.6079 86.6601 20.9146L89.4912 23.3646C91.5601 25.0524 92.8668 26.9035 92.8668 29.9524V33.0557C92.8668 37.9557 89.9812 40.4601 85.3534 40.4601C80.7256 40.4601 78.2212 37.6835 78.2212 33.2735V27.6657H83.8834V33.4368C83.8834 35.0157 84.319 36.1046 85.3534 36.1046C86.3879 36.1046 86.7145 35.0157 86.7145 33.4368V30.3879C86.7145 28.9724 86.0612 28.0468 84.5912 26.7401Z" fill="#000609"/>
<path d="M140.363 13.9457V40.0246H134.156V7.90235H140.363V12.3668C140.853 9.37235 142.432 7.4668 145.154 7.4668C148.04 7.4668 149.51 9.86235 149.51 12.6935V40.0246H143.303V13.9457C143.303 12.7479 142.868 11.8768 141.888 11.8768C140.962 11.8768 140.363 12.7479 140.363 13.9457Z" fill="#000609"/>
<path d="M157.363 14.5446V32.729C157.363 34.5801 157.468 35.669 158.67 35.669C159.872 35.669 160.022 34.8154 160.022 32.1846V27.5051H166.238V32.7835C166.238 37.7379 163.243 40.4601 158.724 40.4601C153.879 40.4601 151.048 37.6835 151.048 32.729V15.2524C151.048 10.2979 154.042 7.4668 158.67 7.4668C163.352 7.4668 166.238 10.2435 166.238 15.2524V20.5879H159.977V14.5446C159.977 12.9657 159.759 11.8224 158.67 11.8224C157.635 11.8224 157.363 12.9657 157.363 14.5446Z" fill="#000609"/>
<path fill-rule="evenodd" clip-rule="evenodd" d="M182.333 32.7835V27.5024H176.126V32.729C176.126 34.463 175.997 35.669 174.765 35.669C173.532 35.669 173.458 34.5257 173.458 32.729V24.8346H179.045L182.333 21.5469V15.2524C182.333 10.2435 179.447 7.4668 174.765 7.4668C170.137 7.4668 167.143 10.2979 167.143 15.2524V32.729C167.143 37.6835 170.222 40.4601 175.013 40.4601C179.532 40.4601 182.333 36.8736 182.333 32.7835ZM173.458 20.8057V14.5446C173.458 12.9657 173.73 11.8224 174.765 11.8224C175.854 11.8224 176.126 12.9657 176.126 14.5446V20.8057H173.458Z" fill="#000609"/>
<path fill-rule="evenodd" clip-rule="evenodd" d="M132.553 32.7835V27.5024H126.347V32.729C126.347 34.463 126.218 35.669 124.986 35.669C123.753 35.669 123.679 34.5257 123.679 32.729V24.8346H129.265L132.553 21.5468V15.2524C132.553 10.2435 129.668 7.4668 124.986 7.4668C120.358 7.4668 117.363 10.2979 117.363 15.2524V32.729C117.363 37.6835 120.443 40.4601 125.234 40.4601C129.753 40.4601 132.553 36.8736 132.553 32.7835ZM123.679 20.8057V14.5446C123.679 12.9657 123.951 11.8224 124.986 11.8224C126.074 11.8224 126.347 12.9657 126.347 14.5446V20.8057H123.679Z" fill="#000609"/>
<path fill-rule="evenodd" clip-rule="evenodd" d="M77.11 32.7835V27.5024H70.9033V32.729C70.9033 34.463 70.7747 35.669 69.5422 35.669C68.3097 35.669 68.2355 34.5257 68.2355 32.729V24.8346H73.8225L77.11 21.5471V15.2524C77.11 10.2435 74.2244 7.4668 69.5422 7.4668C64.9144 7.4668 61.92 10.2979 61.92 15.2524V32.729C61.92 37.6835 64.9995 40.4601 69.7906 40.4601C74.3095 40.4601 77.11 36.8736 77.11 32.7835ZM68.2355 20.8057V14.5446C68.2355 12.9657 68.5078 11.8224 69.5422 11.8224C70.6311 11.8224 70.9033 12.9657 70.9033 14.5446V20.8057H68.2355Z" fill="#000609"/>
<path fill-rule="evenodd" clip-rule="evenodd" d="M53.9195 24.9985C53.9195 23.2563 53.484 22.2763 52.3951 22.2763H50.9795V40.0252H44.4462V0.0263672H52.9395C58.1184 0.0263672 60.3984 2.45849 60.3984 7.35849V14.3818C60.3984 14.7661 60.3815 15.138 60.3412 15.4969L55.961 19.8771H57.4404C57.4447 19.8795 57.4491 19.8818 57.4534 19.8842H60.3389V24.1115C60.3808 24.4834 60.3984 24.8699 60.3984 25.2707V40.0252H53.9195V24.9985ZM53.9195 14.654V7.35849C53.9195 5.56183 53.484 4.58183 52.3951 4.58183H50.9795V17.3763H52.3951C53.484 17.3763 53.9195 16.3963 53.9195 14.654Z" fill="#000609"/>
</svg>
