<svg width="166" height="41" viewBox="0 0 166 41" fill="none" xmlns="http://www.w3.org/2000/svg">
<path d="M149.983 5.48436V0.0249023H165.443V4.51139C160.632 14.4033 160.307 26.8898 160.307 40.0249H153.659C153.659 26.8898 155.767 13.3222 159.389 5.48436H149.983Z" fill="#000609"/>
<path d="M147.762 40.0249H141.329V0.0249023H147.762V40.0249Z" fill="#000609"/>
<path d="M71.8239 5.72497H65.6172L65.6172 0.0231934H71.8239V5.72497ZM71.8239 40.025H65.6172V7.90275H71.8239V40.025Z" fill="#000609"/>
<path d="M63.9681 40.0249H57.7615V0H63.9681V40.0249Z" fill="#000609"/>
<path d="M56.1117 5.72492H49.905V0.0231934H56.1117V5.72492ZM56.1117 40.0249H49.905V7.9027H56.1117V40.0249Z" fill="#000609"/>
<path d="M40.5914 26.7406L37.7603 24.454C35.637 22.6573 34.3303 20.8606 34.3303 18.0295V15.0351C34.3303 10.1351 37.1614 7.46729 41.7348 7.46729C46.3081 7.46729 48.7037 10.244 48.7037 14.654V19.9895H43.0959V14.5451C43.0959 12.9662 42.7692 11.8228 41.7348 11.8228C40.7003 11.8228 40.4281 12.9662 40.4281 14.5451V17.1584C40.4281 18.8462 41.2992 19.6084 42.6603 20.9151L45.4914 23.3651C47.5603 25.0528 48.867 26.904 48.867 29.9528V33.0562C48.867 37.9562 45.9814 40.4606 41.3537 40.4606C36.7259 40.4606 34.2214 37.684 34.2214 33.274V27.6662H39.8837V33.4373C39.8837 35.0162 40.3192 36.1051 41.3537 36.1051C42.3881 36.1051 42.7148 35.0162 42.7148 33.4373V30.3884C42.7148 28.9728 42.0614 28.0473 40.5914 26.7406Z" fill="#000609"/>
<path d="M96.3632 13.9462V40.0251H90.1565V7.90284H96.3632V12.3673C96.8532 9.37284 98.432 7.46729 101.154 7.46729C104.04 7.46729 105.51 9.86284 105.51 12.694V40.0251H99.3032V13.9462C99.3032 12.7484 98.8676 11.8773 97.8876 11.8773C96.9621 11.8773 96.3632 12.7484 96.3632 13.9462Z" fill="#000609"/>
<path d="M113.363 14.5448V32.7293C113.363 34.5804 113.468 35.6693 114.67 35.6693C115.872 35.6693 116.022 34.8156 116.022 32.1848V27.5054H122.238V32.7837C122.238 37.7382 119.243 40.4604 114.725 40.4604C109.879 40.4604 107.048 37.6837 107.048 32.7293V15.2526C107.048 10.2982 110.042 7.46704 114.67 7.46704C119.352 7.46704 122.238 10.2437 122.238 15.2526V20.5882H115.977V14.5448C115.977 12.9659 115.759 11.8226 114.67 11.8226C113.636 11.8226 113.363 12.9659 113.363 14.5448Z" fill="#000609"/>
<path fill-rule="evenodd" clip-rule="evenodd" d="M138.333 32.784V27.5028H132.126V32.7295C132.126 34.4634 131.997 35.6695 130.765 35.6695C129.532 35.6695 129.458 34.5262 129.458 32.7295V24.8351H135.045L138.333 21.5474V15.2528C138.333 10.244 135.447 7.46729 130.765 7.46729C126.137 7.46729 123.143 10.2984 123.143 15.2528V32.7295C123.143 37.684 126.222 40.4606 131.013 40.4606C135.532 40.4606 138.333 36.8741 138.333 32.784ZM129.458 20.8062V14.5451C129.458 12.9662 129.73 11.8228 130.765 11.8228C131.854 11.8228 132.126 12.9662 132.126 14.5451V20.8062H129.458Z" fill="#000609"/>
<path fill-rule="evenodd" clip-rule="evenodd" d="M88.5533 32.784V27.5028H82.3466V32.7295C82.3466 34.4634 82.218 35.6695 80.9855 35.6695C79.753 35.6695 79.6788 34.5262 79.6788 32.7295V24.8351H85.2655L88.5533 21.5473V15.2528C88.5533 10.244 85.6677 7.46729 80.9855 7.46729C76.3577 7.46729 73.3633 10.2984 73.3633 15.2528V32.7295C73.3633 37.684 76.4428 40.4606 81.2339 40.4606C85.7528 40.4606 88.5533 36.8741 88.5533 32.784ZM79.6788 20.8062V14.5451C79.6788 12.9662 79.9511 11.8228 80.9855 11.8228C82.0744 11.8228 82.3466 12.9662 82.3466 14.5451V20.8062H79.6788Z" fill="#000609"/>
<path fill-rule="evenodd" clip-rule="evenodd" d="M33.1102 32.784V27.5028H26.9035V32.7295C26.9035 34.4634 26.7749 35.6695 25.5424 35.6695C24.3099 35.6695 24.2357 34.5262 24.2357 32.7295V24.8351H29.8227L33.1102 21.5476V15.2528C33.1102 10.244 30.2246 7.46729 25.5424 7.46729C20.9146 7.46729 17.9202 10.2984 17.9202 15.2528V32.7295C17.9202 37.684 20.9997 40.4606 25.7908 40.4606C30.3097 40.4606 33.1102 36.8741 33.1102 32.784ZM24.2357 20.8062V14.5451C24.2357 12.9662 24.5079 11.8228 25.5424 11.8228C26.6313 11.8228 26.9035 12.9662 26.9035 14.5451V20.8062H24.2357Z" fill="#000609"/>
<path fill-rule="evenodd" clip-rule="evenodd" d="M9.91963 24.9985C9.91963 23.2563 9.48407 22.2763 8.39518 22.2763H6.97963V40.0252H0.446289V0.0263672H8.93963C14.1185 0.0263672 16.3985 2.45849 16.3985 7.35849V14.3818C16.3985 14.7661 16.3816 15.138 16.3413 15.4969L11.9611 19.8771H13.4405C13.4449 19.8795 13.4492 19.8818 13.4535 19.8842H16.339V24.1115C16.381 24.4834 16.3985 24.8699 16.3985 25.2707V40.0252H9.91963V24.9985ZM9.91963 14.654V7.35849C9.91963 5.56183 9.48407 4.58183 8.39518 4.58183H6.97963V17.3763H8.39518C9.48407 17.3763 9.91963 16.3963 9.91963 14.654Z" fill="#000609"/>
</svg>
