<svg width="96" height="97" viewBox="0 0 96 97" fill="none" xmlns="http://www.w3.org/2000/svg">
<path d="M12.0195 87.9116L30.4542 69.4773" stroke="#F3E909" stroke-width="3.2"/>
<path d="M33.3159 18.4705V25.6416L46.1553 23.0407L38.8361 18.4705H33.3159Z" fill="#F3E909" stroke="#F3E909" stroke-width="3.2"/>
<path d="M40.0293 27.3455L46.6514 23.3722L58.7225 19.3855L59.5641 20.2273L60.8885 25.3586L53.2732 35.4572" stroke="#F3E909" stroke-width="3.2"/>
<path fill-rule="evenodd" clip-rule="evenodd" d="M21.6316 24.5071H20.9689L20.5002 24.9757L16.6655 28.8104L16.1524 29.3236L16.2004 30.0477L18.6207 66.5473L18.6953 67.6718L19.7792 67.9803L43.6859 74.7849L52.2134 88.9943L54.9572 87.3476L46.1042 72.5958L45.7787 72.0534L45.1703 71.8803L21.7392 65.2111L19.4414 30.5601L22.2944 27.7071H36.8158L52.9507 37.2766L54.7742 34.6376L38.0707 24.7309L37.6933 24.5071H37.2545H21.6316ZM74.5461 69.5456L73.0741 72.7915L73.0222 72.7814L84.1435 86.8886L86.6565 84.9075L74.5461 69.5456Z" fill="#F3E909"/>
<path d="M59.4178 27.9158L50.3931 40.9757L54.8152 51.1817V58.6503L61.0524 65.3996L66.7361 71.5568L73.0727 72.7916L78.5079 60.8062L73.0727 32.6545L59.4178 27.9158Z" stroke="#F3E909" stroke-width="3.2"/>
</svg>
