<svg width="96" height="97" viewBox="0 0 96 97" fill="none" xmlns="http://www.w3.org/2000/svg">
<path fill-rule="evenodd" clip-rule="evenodd" d="M80 8.6001H48V28.5077L49.4766 25.4239V9.99268H52.874C54.9456 9.99268 55.8576 10.9656 55.8576 12.9256V15.5815H60.0527L61.9766 21.4908L54.25 39.9438V40.6001H80V8.6001ZM52.6037 18.8929H52.09V19.9659L52.6037 18.8929ZM53.266 12.9256V15.8439C53.266 16.5408 53.0918 16.9328 52.6562 16.9328H52.09V11.8149H52.6562C53.0918 11.8149 53.266 12.2069 53.266 12.9256ZM71.6964 39.146H69.1239V26.5622H68.043V24.6163H68.1511C69.0374 24.573 69.6427 24.4649 69.967 23.2973L69.9886 23.146H71.6964V39.146ZM72.5633 25.3298V23.146H78.7461V24.9406C76.8221 28.8973 76.6924 33.8919 76.6924 39.146H74.0334C74.0334 33.8919 74.8765 28.4649 76.3249 25.3298H72.5633Z" fill="#0C9DE0"/>
<path d="M13.1719 88.5996L17.8987 83.8737V47.999L24.8024 45.9754M24.8024 45.9754L28.9751 39.0189L36.6349 36.3197M24.8024 45.9754L23.4071 55.5563M36.6349 36.3197L38.374 31.0939H46.6065M36.6349 36.3197L33.7629 50.8204M46.6065 31.0939L42.0488 50.1384M46.6065 31.0939L54.2597 15.5288H59.9951L61.8452 21.6346L54.2597 39.933V56.7871M54.2597 56.7871H58.7M54.2597 56.7871V60.1433H54.9382L58.7 56.7871M58.7 56.7871L67.4881 47.999H72.206L75.0274 50.8204L72.206 56.7871L59.9951 73.2533L45.194 82.3189V88.5996" stroke="#0C9DE0" stroke-width="3.2"/>
</svg>
