<svg width="96" height="96" viewBox="0 0 96 96" fill="none" xmlns="http://www.w3.org/2000/svg">
<path d="M87.9993 62H84.0221L72.0221 56H64.0221L36.0221 68V76H60.0228M87.9993 80H78.0221L60.0228 88H40.0221L8.02212 62V54.7156L12.0221 52L40.3644 66.139" stroke="#8AE051" stroke-width="3.2"/>
<path d="M39.5968 58.0164L49.7109 61.881L54.9005 59.4559L41.4986 56.3097L39.5968 58.0164Z" fill="#8AE051"/>
<path d="M23.0399 58.0164L28 53.1357L39.5968 58.0164M39.5968 58.0164L49.7109 61.881L54.9005 59.4559L41.4986 56.3097L39.5968 58.0164Z" stroke="#8AE051" stroke-width="3.2"/>
<path fill-rule="evenodd" clip-rule="evenodd" d="M60.0117 16H41.4403L34.0117 23.4286V42H60.0117V16ZM55.2251 29.7851C55.6668 29.7851 55.8436 30.1827 55.8436 30.8896V36.9863H58.4722V31.0001C58.4722 30.8444 58.4657 30.6941 58.4502 30.5492V28.8145H57.2771L57.2717 28.8115H56.6723L58.449 27.0348C58.4653 26.8891 58.4722 26.7382 58.4722 26.5822V23.7326C58.4722 22.2056 57.9265 21.2693 56.7212 20.9172V17.8604H55.8355V20.77C55.7104 20.7619 55.5806 20.7578 55.446 20.7578H54.6355V17.8604H53.7498V20.7578H52V36.9863H54.6507V29.7851H55.2251ZM55.8436 23.7326V26.6926C55.8436 27.3995 55.6668 27.7971 55.2251 27.7971H54.6507V22.6061H55.2251C55.6668 22.6061 55.8436 23.0037 55.8436 23.7326ZM53.7498 39.9104V36.9863H54.6355V39.9104H53.7498ZM55.8355 39.9104V36.9863H56.7212V39.9104H55.8355Z" fill="#8AE051"/>
</svg>
