<svg width="96" height="97" viewBox="0 0 96 97" fill="none" xmlns="http://www.w3.org/2000/svg">
<path d="M88.0014 66.3256H84.6247L74.4366 61.2315H67.6445L43.8721 71.4197V78.2118H64.249M88.0014 81.6078H79.5307L64.249 88.3999H47.2682L20.0998 66.3256V60.141L23.4958 57.8354L47.5588 69.8396" stroke="#E95120" stroke-width="3.2"/>
<path d="M46.9074 62.9431L55.4943 66.2241L59.9003 64.1652L48.522 61.494L46.9074 62.9431Z" fill="#E95120"/>
<path d="M32.8503 62.9431L37.0615 58.7993L46.9074 62.9431M46.9074 62.9431L55.4943 66.2241L59.9003 64.1652L48.522 61.494L46.9074 62.9431Z" stroke="#E95120" stroke-width="3.2"/>
<path d="M8.02328 29.0117H10.5644L18.2314 32.8452H23.3427L41.2323 25.1783V20.0669H25.8979M8.02328 17.5113H14.3979L25.8979 12.4H38.6766L59.1218 29.0117V33.6658L56.5662 35.4009L38.4579 26.3673" stroke="#E95120" stroke-width="3.2"/>
<path d="M38.9469 31.556L32.4849 29.0869L29.1692 30.6363L37.7318 32.6465L38.9469 31.556Z" fill="#E95120"/>
<path d="M49.5254 31.556L46.3562 34.6743L38.9469 31.556M38.9469 31.556L32.4849 29.0869L29.1692 30.6363L37.7318 32.6465L38.9469 31.556Z" stroke="#E95120" stroke-width="3.2"/>
</svg>
