<svg width="56" height="38" viewBox="0 0 56 38" fill="none" xmlns="http://www.w3.org/2000/svg">
<path d="M51.4155 17.7062C51.4621 17.3884 51.4621 17.116 51.4621 16.7982C51.4621 11.0782 46.7138 6.40227 40.8017 6.40227C37.9155 6.40227 35.3086 7.5372 33.3535 9.35309C32.469 4.58638 28.1862 1 23.0655 1C19.0621 1 15.6172 3.17906 13.8483 6.40227C6.72585 6.44767 1 12.1223 1 19.0681C1 26.0593 6.81895 31.7339 13.9879 31.7339C16.4086 31.7339 18.6431 31.0984 20.5983 29.9634C21.9483 34.0492 25.8586 37 30.4672 37C35.0759 37 38.9862 34.0492 40.3362 30.0088C41.1276 30.372 42.0121 30.599 42.9431 30.599C43.781 30.599 44.5724 30.4174 45.3172 30.0996C46.1086 30.4174 46.9931 30.599 47.9241 30.599C51.8345 30.599 55 27.512 55 23.6986C55 21.1564 53.5569 18.9319 51.4155 17.7062Z" fill="#E5E5DB" stroke="#000609" stroke-width="0.4"/>
</svg>
