<svg width="117" height="49" viewBox="0 0 117 49" fill="none" xmlns="http://www.w3.org/2000/svg">
<path d="M108.438 20.7383C106.749 15.4275 101.679 11.6215 95.8091 11.6215C92.7851 11.6215 89.9391 12.6836 87.7156 14.3654C87.5377 6.93035 81.4009 1 73.9301 1C68.238 1 63.4352 4.36351 61.3007 9.23168C58.9883 7.10738 55.9644 5.86817 52.6736 5.86817C46.0032 5.86817 40.489 11.0019 40.0443 17.5518C38.5323 16.9322 36.9314 16.5782 35.2416 16.5782C32.1287 16.5782 29.1937 17.8173 27.0592 19.7646C25.1914 17.1977 22.1675 15.6045 18.7878 15.6045C14.7856 15.6045 11.3169 17.9058 9.62709 21.2693C9.27134 21.1808 8.91558 21.1808 8.47088 21.1808C4.37969 21.1808 1 24.5443 1 28.6158C1 32.6874 4.37969 36.0509 8.47088 36.0509C10.1607 36.0509 11.7616 35.4313 13.0068 34.4576C14.6966 35.6083 16.6533 36.2279 18.7878 36.2279C21.0113 36.2279 23.0569 35.5198 24.6578 34.3691C26.7034 38.0866 30.6167 40.565 35.1526 40.565C37.6429 40.565 39.9553 39.8569 41.823 38.5292C44.1355 42.3352 48.3156 44.9021 53.1183 44.9021C56.5869 44.9021 59.6998 43.5744 62.1012 41.3616C64.5025 45.3446 68.9495 48 73.9301 48C78.7328 48 82.9129 45.6101 85.4032 41.8926C87.182 43.6629 89.7612 44.8135 92.5183 44.8135C96.4316 44.8135 99.8113 42.6008 101.412 39.3258C102.746 40.0339 104.347 40.3879 105.948 40.3879C111.462 40.3879 115.998 35.8738 115.998 30.3861C116.087 25.6949 112.796 21.8004 108.438 20.7383Z" fill="#E5E5DB" stroke="#000609" stroke-width="0.4"/>
</svg>
