<svg width="29" height="21" viewBox="0 0 29 21" fill="none" xmlns="http://www.w3.org/2000/svg">
<path d="M12.6297 16.2178L9.66466 12.9785L27.7343 2.79146L12.6297 16.2178Z" fill="#8AE051" stroke="#000609" stroke-width="0.6"/>
<g style="mix-blend-mode:multiply">
<path d="M15.4155 13.7463L12.633 16.189L12.7686 13.2283L15.4155 13.7463Z" fill="#000609"/>
</g>
<path d="M3.96535 9.9436L1.53349 8.73447L17.9321 3.37379L27.8634 2.7593L28.0486 8.35637L17.9222 19.6005L12.8086 13.1871L27.8634 2.7593L9.66813 12.9363L3.96535 9.9436Z" fill="#8AE051"/>
<path d="M27.8634 2.7593L17.9321 3.37379L1.53349 8.73447L3.96535 9.9436L9.66813 12.9363L27.8634 2.7593ZM27.8634 2.7593L28.0486 8.35637L17.9222 19.6005L12.8086 13.1871L27.8634 2.7593Z" stroke="#000609" stroke-width="0.6"/>
<path d="M12.6285 16.211L12.8083 13.193" stroke="#000609" stroke-width="0.6"/>
<path d="M17.9627 3.36317L3.99256 9.96063" stroke="#000609" stroke-width="0.4"/>
<path d="M28.0573 8.34713L17.4627 15.9301L17.9284 19.5883" stroke="#000609" stroke-width="0.6"/>
</svg>
