<svg width="64" height="51" viewBox="0 0 64 51" fill="none" xmlns="http://www.w3.org/2000/svg">
<path d="M25.4759 37.556L20.3531 29.4835L61.5605 12.1073L25.4759 37.556Z" fill="#8AE051" stroke="#000609" stroke-width="0.6"/>
<g style="mix-blend-mode:multiply">
<path d="M32.1288 32.8731L25.4917 37.4931L26.7634 30.947L32.1288 32.8731Z" fill="#000609"/>
</g>
<path d="M9.44075 21.0665L4.75601 17.6659L40.8564 10.5366L61.8411 12.0736L60.3607 24.5777L35.4204 46.6279L26.8614 30.8669L61.8411 12.0736L20.3741 29.3909L9.44075 21.0665Z" fill="#8AE051"/>
<path d="M61.8411 12.0736L40.8564 10.5366L4.75601 17.6659L9.44075 21.0665L20.3741 29.3909L61.8411 12.0736ZM61.8411 12.0736L60.3607 24.5777L35.4205 46.6279L26.8614 30.8669L61.8411 12.0736Z" stroke="#000609" stroke-width="0.6"/>
<path d="M25.4756 37.5403L26.8589 30.8796" stroke="#000609" stroke-width="0.6"/>
<path d="M40.9237 10.5217L9.49166 21.112" stroke="#000609" stroke-width="0.4"/>
<path d="M60.3819 24.5596L35.6837 38.3292L35.4374 46.6025" stroke="#000609" stroke-width="0.6"/>
</svg>
