<svg width="40" height="30" viewBox="0 0 40 30" fill="none" xmlns="http://www.w3.org/2000/svg">
<path d="M17.4516 23.1316L13.3079 18.306L38.7791 2.93046L17.4516 23.1316Z" fill="#8AE051" stroke="#000609" stroke-width="0.6"/>
<g style="mix-blend-mode:multiply">
<path d="M21.3846 19.4132L17.456 23.0889L17.6681 18.6575L21.3846 19.4132Z" fill="#000609"/>
</g>
<path d="M5.31948 13.8065L1.91034 12.0149L24.9977 3.87357L38.9606 2.88155L39.1801 11.2555L24.8653 28.1549L17.725 18.5953L38.9606 2.88155L13.3129 18.243L5.31948 13.8065Z" fill="#8AE051"/>
<path d="M38.9606 2.88155L24.9977 3.87357L1.91034 12.0149L5.31948 13.8065L13.3129 18.243L38.9606 2.88155ZM38.9606 2.88155L39.1801 11.2555L24.8653 28.1549L17.725 18.5953L38.9606 2.88155Z" stroke="#000609" stroke-width="0.6"/>
<path d="M17.4498 23.1214L17.7245 18.6039" stroke="#000609" stroke-width="0.6"/>
<path d="M25.0406 3.85729L5.35732 13.8316" stroke="#000609" stroke-width="0.4"/>
<path d="M39.1922 11.2416L24.2461 22.666L24.874 28.1365" stroke="#000609" stroke-width="0.6"/>
</svg>
