<svg width="424" height="300" viewBox="0 0 424 300" fill="none" xmlns="http://www.w3.org/2000/svg">
<g clip-path="url(#clip0_1_1210)">
<path d="M0 30H424" stroke="#BBC2C6" stroke-width="2"/>
<path d="M0 60H424" stroke="#BBC2C6" stroke-width="2"/>
<path d="M0 90H424" stroke="#BBC2C6" stroke-width="2"/>
<path d="M0 120H424" stroke="#BBC2C6" stroke-width="2"/>
<path d="M0 150H424" stroke="#BBC2C6" stroke-width="2"/>
<path d="M0 180H424" stroke="#BBC2C6" stroke-width="2"/>
<path d="M0 210H424" stroke="#BBC2C6" stroke-width="2"/>
<path d="M0 240H424" stroke="#BBC2C6" stroke-width="2"/>
<path d="M0 270H424" stroke="#BBC2C6" stroke-width="2"/>
<path d="M-170 215.054L239.383 -194.329" stroke="#8AE051" stroke-width="2"/>
<path d="M-148.787 236.267L260.596 -173.116" stroke="#8AE051" stroke-width="2"/>
<path d="M-127.574 257.48L281.809 -151.902" stroke="#8AE051" stroke-width="2"/>
<path d="M-106.36 278.693L303.022 -130.689" stroke="#8AE051" stroke-width="2"/>
<path d="M-85.1472 299.906L324.236 -109.477" stroke="#8AE051" stroke-width="2"/>
<path d="M-63.934 321.12L345.449 -88.2627" stroke="#8AE051" stroke-width="2"/>
<path d="M-42.7208 342.333L366.662 -67.0498" stroke="#8AE051" stroke-width="2"/>
<path d="M-21.5076 363.546L387.875 -45.8369" stroke="#8AE051" stroke-width="2"/>
<path d="M-0.294373 384.76L409.088 -24.623" stroke="#8AE051" stroke-width="2"/>
<path d="M20.9188 405.973L430.302 -3.41013" stroke="#8AE051" stroke-width="2"/>
<path d="M42.132 427.186L451.515 17.8028" stroke="#8AE051" stroke-width="2"/>
<path d="M63.3452 448.399L472.728 39.0166" stroke="#8AE051" stroke-width="2"/>
<path d="M84.5584 469.612L493.941 60.2295" stroke="#8AE051" stroke-width="2"/>
<path d="M105.772 490.825L515.154 81.4424" stroke="#8AE051" stroke-width="2"/>
<path d="M126.985 512.038L536.368 102.655" stroke="#8AE051" stroke-width="2"/>
<path d="M148.198 533.252L557.581 123.869" stroke="#8AE051" stroke-width="2"/>
</g>
<defs>
<clipPath id="clip0_1_1210">
<rect width="424" height="300" fill="white"/>
</clipPath>
</defs>
</svg>
