<svg width="1440" height="240" viewBox="0 0 1440 240" fill="none" xmlns="http://www.w3.org/2000/svg">
<rect width="1440.01" height="240" fill="#BBC2C6"/>
<g clip-path="url(#clip0_1_877)">
<path fill-rule="evenodd" clip-rule="evenodd" d="M80.0005 240V0L0 80V240H80.0005Z" fill="#000609"/>
<path fill-rule="evenodd" clip-rule="evenodd" d="M160.001 240V0L80.0005 80V240H160.001Z" fill="#000609"/>
<path fill-rule="evenodd" clip-rule="evenodd" d="M240.001 240V0L160.001 80V240H240.001Z" fill="#000609"/>
<path fill-rule="evenodd" clip-rule="evenodd" d="M320.002 240V0L240.001 80V240H320.002Z" fill="#000609"/>
<path fill-rule="evenodd" clip-rule="evenodd" d="M400.002 240V0L320.002 80V240H400.002Z" fill="#000609"/>
<path fill-rule="evenodd" clip-rule="evenodd" d="M480.003 240V0L400.002 80V240H480.003Z" fill="#000609"/>
<path fill-rule="evenodd" clip-rule="evenodd" d="M560.003 240V0L480.003 80V240H560.003Z" fill="#000609"/>
<path fill-rule="evenodd" clip-rule="evenodd" d="M640.004 240V0L560.003 80V240H640.004Z" fill="#000609"/>
<path fill-rule="evenodd" clip-rule="evenodd" d="M720.004 240V0L640.004 80V240H720.004Z" fill="#000609"/>
<path fill-rule="evenodd" clip-rule="evenodd" d="M800.005 240V0L720.004 80V240H800.005Z" fill="#000609"/>
<path fill-rule="evenodd" clip-rule="evenodd" d="M880.005 240V0L800.005 80V240H880.005Z" fill="#000609"/>
<path fill-rule="evenodd" clip-rule="evenodd" d="M960.006 240V0L880.005 80V240H960.006Z" fill="#000609"/>
<path fill-rule="evenodd" clip-rule="evenodd" d="M1040.01 240V0L960.006 80V240H1040.01Z" fill="#000609"/>
<path fill-rule="evenodd" clip-rule="evenodd" d="M1120.01 240V0L1040.01 80V240H1120.01Z" fill="#000609"/>
<path fill-rule="evenodd" clip-rule="evenodd" d="M1200.01 240V0L1120.01 80V240H1200.01Z" fill="#000609"/>
<path fill-rule="evenodd" clip-rule="evenodd" d="M1280.01 240V0L1200.01 80V240H1280.01Z" fill="#000609"/>
<path fill-rule="evenodd" clip-rule="evenodd" d="M1360.01 240V0L1280.01 80V240H1360.01Z" fill="#000609"/>
<path fill-rule="evenodd" clip-rule="evenodd" d="M1440.01 240V0L1360.01 80V240H1440.01Z" fill="#000609"/>
</g>
<g clip-path="url(#clip1_1_877)">
<path fill-rule="evenodd" clip-rule="evenodd" d="M80.0005 320V80L0 160V320H80.0005Z" fill="#000609"/>
<path fill-rule="evenodd" clip-rule="evenodd" d="M160.001 320V80L80.0005 160V320H160.001Z" fill="#000609"/>
<path fill-rule="evenodd" clip-rule="evenodd" d="M240.001 320V80L160.001 160V320H240.001Z" fill="#000609"/>
<path fill-rule="evenodd" clip-rule="evenodd" d="M320.002 320V80L240.001 160V320H320.002Z" fill="#000609"/>
<path fill-rule="evenodd" clip-rule="evenodd" d="M400.002 320V80L320.002 160V320H400.002Z" fill="#000609"/>
<path fill-rule="evenodd" clip-rule="evenodd" d="M480.003 320V80L400.002 160V320H480.003Z" fill="#000609"/>
<path fill-rule="evenodd" clip-rule="evenodd" d="M560.003 320V80L480.003 160V320H560.003Z" fill="#000609"/>
<path fill-rule="evenodd" clip-rule="evenodd" d="M640.004 320V80L560.003 160V320H640.004Z" fill="#000609"/>
<path fill-rule="evenodd" clip-rule="evenodd" d="M720.004 320V80L640.004 160V320H720.004Z" fill="#000609"/>
<path fill-rule="evenodd" clip-rule="evenodd" d="M800.005 320V80L720.004 160V320H800.005Z" fill="#000609"/>
<path fill-rule="evenodd" clip-rule="evenodd" d="M880.005 320V80L800.005 160V320H880.005Z" fill="#000609"/>
<path fill-rule="evenodd" clip-rule="evenodd" d="M960.006 320V80L880.005 160V320H960.006Z" fill="#000609"/>
<path fill-rule="evenodd" clip-rule="evenodd" d="M1040.01 320V80L960.006 160V320H1040.01Z" fill="#000609"/>
<path fill-rule="evenodd" clip-rule="evenodd" d="M1120.01 320V80L1040.01 160V320H1120.01Z" fill="#000609"/>
<path fill-rule="evenodd" clip-rule="evenodd" d="M1200.01 320V80L1120.01 160V320H1200.01Z" fill="#000609"/>
<path fill-rule="evenodd" clip-rule="evenodd" d="M1280.01 320V80L1200.01 160V320H1280.01Z" fill="#000609"/>
<path fill-rule="evenodd" clip-rule="evenodd" d="M1360.01 320V80L1280.01 160V320H1360.01Z" fill="#000609"/>
<path fill-rule="evenodd" clip-rule="evenodd" d="M1440.01 320V80L1360.01 160V320H1440.01Z" fill="#000609"/>
</g>
<g clip-path="url(#clip2_1_877)">
<path fill-rule="evenodd" clip-rule="evenodd" d="M80.0005 400V160L0 240V400H80.0005Z" fill="#000609"/>
<path fill-rule="evenodd" clip-rule="evenodd" d="M160.001 400V160L80.0005 240V400H160.001Z" fill="#000609"/>
<path fill-rule="evenodd" clip-rule="evenodd" d="M240.001 400V160L160.001 240V400H240.001Z" fill="#000609"/>
<path fill-rule="evenodd" clip-rule="evenodd" d="M320.002 400V160L240.001 240V400H320.002Z" fill="#000609"/>
<path fill-rule="evenodd" clip-rule="evenodd" d="M400.002 400V160L320.002 240V400H400.002Z" fill="#000609"/>
<path fill-rule="evenodd" clip-rule="evenodd" d="M480.003 400V160L400.002 240V400H480.003Z" fill="#000609"/>
<path fill-rule="evenodd" clip-rule="evenodd" d="M560.003 400V160L480.003 240V400H560.003Z" fill="#000609"/>
<path fill-rule="evenodd" clip-rule="evenodd" d="M640.004 400V160L560.003 240V400H640.004Z" fill="#000609"/>
<path fill-rule="evenodd" clip-rule="evenodd" d="M720.004 400V160L640.004 240V400H720.004Z" fill="#000609"/>
<path fill-rule="evenodd" clip-rule="evenodd" d="M800.005 400V160L720.004 240V400H800.005Z" fill="#000609"/>
<path fill-rule="evenodd" clip-rule="evenodd" d="M880.005 400V160L800.005 240V400H880.005Z" fill="#000609"/>
<path fill-rule="evenodd" clip-rule="evenodd" d="M960.006 400V160L880.005 240V400H960.006Z" fill="#000609"/>
<path fill-rule="evenodd" clip-rule="evenodd" d="M1040.01 400V160L960.006 240V400H1040.01Z" fill="#000609"/>
<path fill-rule="evenodd" clip-rule="evenodd" d="M1120.01 400V160L1040.01 240V400H1120.01Z" fill="#000609"/>
<path fill-rule="evenodd" clip-rule="evenodd" d="M1200.01 400V160L1120.01 240V400H1200.01Z" fill="#000609"/>
<path fill-rule="evenodd" clip-rule="evenodd" d="M1280.01 400V160L1200.01 240V400H1280.01Z" fill="#000609"/>
<path fill-rule="evenodd" clip-rule="evenodd" d="M1360.01 400V160L1280.01 240V400H1360.01Z" fill="#000609"/>
<path fill-rule="evenodd" clip-rule="evenodd" d="M1440.01 400V160L1360.01 240V400H1440.01Z" fill="#000609"/>
</g>
<defs>
<clipPath id="clip0_1_877">
<rect width="1440.01" height="80" fill="white"/>
</clipPath>
<clipPath id="clip1_1_877">
<rect width="1440.01" height="80" fill="white" transform="translate(0 80)"/>
</clipPath>
<clipPath id="clip2_1_877">
<rect width="1440.01" height="80" fill="white" transform="translate(0 160)"/>
</clipPath>
</defs>
</svg>
